<svg width="20" height="21" viewBox="0 0 20 21" fill="none" xmlns="http://www.w3.org/2000/svg">
<path d="M6.44378 13.7912H6.4447C6.44546 13.7912 6.44622 13.791 6.44699 13.791H17.0703C17.3318 13.791 17.5618 13.6175 17.6337 13.3661L19.9774 5.16293C20.0279 4.98608 19.9925 4.79596 19.8819 4.64917C19.7711 4.50238 19.5979 4.41601 19.4141 4.41601H5.09247L4.67361 2.5311C4.61395 2.263 4.37622 2.07227 4.10156 2.07227H0.585937C0.262298 2.07227 0 2.33456 0 2.6582C0 2.98184 0.262298 3.24414 0.585937 3.24414H3.63159C3.70575 3.57815 5.63598 12.2644 5.74707 12.7641C5.12436 13.0348 4.6875 13.6557 4.6875 14.3769C4.6875 15.3462 5.47607 16.1348 6.44531 16.1348H17.0703C17.3939 16.1348 17.6562 15.8725 17.6562 15.5488C17.6562 15.2252 17.3939 14.9629 17.0703 14.9629H6.44531C6.12228 14.9629 5.85937 14.7 5.85937 14.3769C5.85937 14.0544 6.12137 13.7919 6.44378 13.7912ZM18.6372 5.58789L16.6283 12.6191H6.91528L5.35278 5.58789H18.6372Z" fill="white"/>
<path d="M5.85938 17.8926C5.85938 18.8618 6.64795 19.6504 7.61719 19.6504C8.58642 19.6504 9.375 18.8618 9.375 17.8926C9.375 16.9233 8.58642 16.1348 7.61719 16.1348C6.64795 16.1348 5.85938 16.9233 5.85938 17.8926ZM7.61719 17.3066C7.94022 17.3066 8.20312 17.5695 8.20312 17.8926C8.20312 18.2156 7.94022 18.4785 7.61719 18.4785C7.29416 18.4785 7.03125 18.2156 7.03125 17.8926C7.03125 17.5695 7.29416 17.3066 7.61719 17.3066Z" fill="white"/>
<path d="M14.1406 17.8926C14.1406 18.8618 14.9292 19.6504 15.8984 19.6504C16.8677 19.6504 17.6562 18.8618 17.6562 17.8926C17.6562 16.9233 16.8677 16.1348 15.8984 16.1348C14.9292 16.1348 14.1406 16.9233 14.1406 17.8926ZM15.8984 17.3066C16.2215 17.3066 16.4844 17.5695 16.4844 17.8926C16.4844 18.2156 16.2215 18.4785 15.8984 18.4785C15.5754 18.4785 15.3125 18.2156 15.3125 17.8926C15.3125 17.5695 15.5754 17.3066 15.8984 17.3066Z" fill="white"/>
</svg>
